<svg xmlns="http://www.w3.org/2000/svg" width="400" height="226.364" viewBox="0 0 400 226.364">
    <defs>
        <clipPath id="clip-path">
            <path id="Caminho_3210" fill="none" d="M63.572 292.388S47.162 270.725 55 244.749s27.971-45.82 21.477-75.871c-7.711-35.69 10.247-64.855 42.32-61.9 57.793 5.32 92.11-34 111.717-38.05 58.086-11.993 68.686 31.883 100.04 36.157 67.666 9.228 88.583 38.754 86.164 95.392-.8 18.63 51.019 55.938 21.267 91.912z" transform="translate(-52.878 -66.859)"/>
        </clipPath>
        <clipPath id="clip-path-2">
            <path id="Caminho_3317" d="M101.178 222V91.063a7.559 7.559 0 0 1 7.56-7.563h23.254l.848 2.7a3.761 3.761 0 0 0 3.659 2.885h16.064a3.761 3.761 0 0 0 3.659-2.885l.852-2.7h23.254a7.562 7.562 0 0 1 7.563 7.563v130.93a7.566 7.566 0 0 1-7.567 7.567h-71.586a7.56 7.56 0 0 1-7.56-7.56z" class="cls-2" transform="translate(-101.178 -83.5)"/>
        </clipPath>
        <style>
            .cls-2{fill:#f3d970}.cls-5{fill:#cbdff7}.cls-6{fill:#ffc17d}.cls-7{fill:#ffa44a}.cls-8{fill:#9f4424}.cls-9{fill:#423f3f}.cls-10{fill:#bfc0c1}.cls-11{fill:#3f6ed3}.cls-12{fill:#314c7d}.cls-13{fill:#da7553}.cls-14{fill:#ffa47f}.cls-15{fill:#f27049}.cls-16,.cls-28{fill:#fff}.cls-17{fill:#412014}.cls-18{fill:#635dad}.cls-19{fill:#443e90}.cls-20{fill:#f1543b}.cls-21{fill:#005644}.cls-22{fill:#208674}.cls-25{fill:#d9d9d9}.cls-27{fill:#d3ddf8}.cls-28{opacity:.6}.cls-29{fill:#d1e2ee}.cls-31{fill:#ff765f}.cls-32{fill:#ececec}
        </style>
    </defs>
    <g id="Grupo_4695" transform="translate(-51.42 -66.859)">
        <path id="Caminho_3203" fill="#ebf3fd" d="M63.572 292.511S47.162 270.852 55 244.875 82.968 199.056 76.474 169c-7.711-35.69 10.344-65.788 42.32-61.9 53.582 6.506 92.11-34 111.717-38.046 58.092-12 68.689 31.879 100.043 36.153 67.666 9.228 88.583 38.758 86.164 95.4-.8 18.63 51.019 55.934 21.267 91.908z" transform="translate(4.212 .363)"/>
        <g id="Grupo_4657" transform="translate(57.089 66.859)">
            <g id="Grupo_4656" clip-path="url(#clip-path)">
                <g id="Grupo_4655" transform="translate(43.274 -4.055)">
                    <g id="Grupo_4654">
                        <path id="Retângulo_963" d="M0 0H5.73V143.266H0z" class="cls-5" transform="rotate(90 54.826 89.581)"/>
                        <path id="Retângulo_964" d="M0 0H5.731V143.266H0z" class="cls-5" transform="rotate(90 33.061 111.346)"/>
                        <path id="Retângulo_965" d="M0 0H5.73V143.266H0z" class="cls-5" transform="rotate(90 11.295 133.112)"/>
                        <g id="Grupo_4653">
                            <path id="Retângulo_966" d="M0 0H5.73V127.546H0z" class="cls-5"/>
                            <path id="Retângulo_967" d="M0 0H5.732V127.546H0z" class="cls-5" transform="translate(47.18)"/>
                            <path id="Retângulo_968" d="M0 0H5.73V127.546H0z" class="cls-5" transform="translate(94.362)"/>
                            <path id="Retângulo_969" d="M0 0H5.73V127.546H0z" class="cls-5" transform="translate(141.544)"/>
                        </g>
                        <path id="Caminho_3204" d="M88.6 105.245c-1.174 1.38-1.532 3.8-1.995 5.491-.369 1.357-.677 2.718-.953 4.091h-.91a109.173 109.173 0 0 1 2.248-11.192c.747-2.633 2.423-3.927 4.974-4.678 2.143-.63 4.32-1.159 6.478-1.734a43.872 43.872 0 0 0-8.652.914 28.6 28.6 0 0 0-3.333.976 115.182 115.182 0 0 1 5.012-11.93c.183-.381-11.786 10.764-8.8 27.644h-.867c-.031-.039-.058-.078-.086-.117-1.221-4.095-1-8.524-2.66-12.5-1.528-3.671-4.464-6.463-7.6-8.792-.288-.214-.541.187-.432.432 1.544 3.593 4.145 6.506 5.763 10.029 1.318 2.866 2.364 5.883 3.414 8.886a8.244 8.244 0 0 0-5.343-2.808c-3.644-.428-5.257 1.692-6.428 4.857-.124.342.412.552.579.245 1.132-2.042 3.986-2.559 6.14-2.559a8.924 8.924 0 0 1 5.526 2.325h-2.6l2 12.16h6.968l2-12.16h-1.73c.583-1.38 1.077-2.808 1.727-4.173.855-1.8 1.688-3.449 4.036-3.111a38.842 38.842 0 0 1 4.441 1.2c.403.109-6.849-5.922-8.917-3.496z" class="cls-5" transform="translate(-51.273 -4.122)"/>
                    </g>
                    <path id="Caminho_3205" d="M135.424 77.877v80.646h80.643V77.877zm68.584 68.584h-56.522V89.939h56.521z" class="cls-5" transform="translate(142.294 -30.977)"/>
                    <path id="Caminho_3206" d="M126.4 88.93v28.461h28.46V88.93zm24.2 24.2h-19.943V93.184H150.6z" class="cls-5" transform="translate(116.224 .951)"/>
                    <path id="Caminho_3207" d="M117.427 88.93v28.461h28.461V88.93zm24.2 24.2h-19.942V93.184h19.945z" class="cls-5" transform="translate(90.307 .951)"/>
                    <path id="Caminho_3208" d="M117.427 78.737V107.2h28.461V78.737zm24.2 24.207h-19.942V83h19.945z" class="cls-5" transform="translate(90.307 -28.493)"/>
                    <path id="Caminho_3209" d="M108.405 88.93v28.461h28.461V88.93zm24.2 24.2h-19.946V93.184h19.949z" class="cls-5" transform="translate(64.245 .951)"/>
                </g>
            </g>
        </g>
        <g id="Grupo_4669" transform="translate(105.182 149.924)">
            <g id="Grupo_4658" transform="translate(0 58.23)">
                <path id="Caminho_3211" d="M68.837 171.776c5.689 12.794 26.392 18.98 60.939 15.481 24.351-2.461 28.282-12.105 25.926-26.233-1.925-11.514-22.344-22.208-22.344-22.208-5.88-16.348-18.809-36.137-36.417-35.612h-.016a24.116 24.116 0 0 0-6.121.984c-9.862 2.85-16.239 9.617-20.151 17.9a51.041 51.041 0 0 0-3.123 8.652c-4.195 15.795-1.924 33.769 1.307 41.036z" class="cls-6" transform="translate(-65.245 -103.194)"/>
                <path id="Caminho_3212" d="M71.82 125.708s18.071-12.265 38.968-10.332c0 0-18.895-11.814-38.968 10.332z" class="cls-7" transform="translate(-46.254 -77.098)"/>
                <path id="Caminho_3213" d="M74.387 132.113c1.077 6.3 12.747 9.554 26.065 7.279s23.25-9.224 22.177-15.52-8.129-11.93-26.069-7.272c-13.081 3.392-23.246 9.221-22.173 15.513z" class="cls-7" transform="translate(-39.064 -69.429)"/>
                <path id="Caminho_3214" d="M98.278 111.072c-2.069-6.039-10.1-8.757-17.938-6.066s-12.514 9.764-10.441 15.8 7.742 11.226 17.942 6.074c7.439-3.761 12.51-9.765 10.437-15.808z" class="cls-7" transform="translate(-53.222 -100.963)"/>
                <path id="Caminho_3215" d="M67.529 130.74l.016-.054c.187-.7.385-1.384.6-2.073.035-.124.078-.249.117-.373.183-.564.369-1.132.568-1.692.054-.156.113-.311.167-.463.2-.556.416-1.1.634-1.645l.152-.385c.28-.661.564-1.322.871-1.968 3.912-8.287 10.289-15.053 20.151-17.9a24.116 24.116 0 0 1 6.121-.984h.016s-27.605 3.974-26.353 36.184c1.034 26.567 18.467 42.145 42.289 43.16 45.742 1.952 42.826-21.524 42.826-21.524 2.356 14.127-1.575 23.771-25.926 26.233-34.547 3.5-55.25-2.687-60.939-15.481-3.227-7.27-5.506-25.247-1.31-41.035z" class="cls-7" transform="translate(-65.244 -103.187)"/>
            </g>
            <g id="Grupo_4668" transform="translate(22.346)">
                <path id="Caminho_3216" d="M76.034 90.9s-6.568 13.272 7.875 21.586l1.334-11.067-5.016-7.937z" class="cls-8" transform="translate(-60.732 -80.467)"/>
                <g id="Grupo_4659" transform="translate(73.421 135.762)">
                    <path id="Caminho_3217" d="M92.183 123.227c-1.3.607-2.31 4.678-2.31 4.678h12.074s-2.827-1.128-5.607-2.368c-3.177-1.419-3.14-2.78-4.157-2.31z" class="cls-9" transform="translate(-89.873 -123.133)"/>
                    <path id="Retângulo_970" d="M0 0H12.072V1.078H0z" class="cls-10" transform="rotate(180 6.037 2.925)"/>
                </g>
                <g id="Grupo_4660" transform="translate(52.049 135.762)">
                    <path id="Caminho_3218" d="M86.683 123.227c-1.295.607-2.306 4.678-2.306 4.678h12.074s-2.827-1.128-5.607-2.368c-3.181-1.419-3.144-2.78-4.161-2.31z" class="cls-9" transform="translate(-84.377 -123.133)"/>
                    <path id="Retângulo_971" d="M0 0H12.074V1.078H0z" class="cls-10" transform="rotate(180 6.037 2.925)"/>
                </g>
                <path id="Caminho_3219" d="M119.944 120.041c2.559 3.881 6.23 45.66 6.23 45.66l-4.227.961-12.424-37.175s-19.587-.63-22.006-4.441c-2.267-3.578-2.267-9.877-2.267-9.877 1.112.051-6.233-6.222-6.233-6.222 16.806-.001 38.983 8.146 40.927 11.094z" class="cls-11" transform="translate(-47.814 -28.35)"/>
                <path id="Caminho_3220" d="M101.677 128.35l12.423 37.176 1.435-.342s-9.935-41.407-11.335-44.953c-2.555-6.455-22.465-10.892-22.465-10.892l9.185 17.942s9.555 1.536 10.757 1.069z" class="cls-12" transform="translate(-39.968 -27.215)"/>
                <path id="Caminho_3221" d="M120.731 122.686c1.392 3.76-4.814 42.892-4.814 42.892l-3.733.109-5.308-36.468s-25.828 2.318-28.243-1.493c-2.263-3.574-3.585-14.011-3.585-14.011 1.1.051 11.611-4.8 11.611-4.8 16.802.001 32.847 10.461 34.072 13.771z" class="cls-11" transform="translate(-59.278 -28.437)"/>
                <path id="Caminho_3222" d="M109.2 126.924c1.392 3.764 4.853 38.7 4.853 38.7l-1.874.058-5.308-36.468s-25.828 2.318-28.243-1.493c-2.263-3.574-3.585-14.011-3.585-14.011 1.1.051 11.611-4.8 11.611-4.8-15.309 27.518 21.322 14.705 22.546 18.014z" class="cls-12" transform="translate(-59.278 -28.437)"/>
                <path id="Caminho_3223" d="M81.427 98.594c6.5.424 15.508 25.315 20.124 30.436 3.986 4.421-9.263 10.165-12.623 7.944s-11.343-38.629-7.501-38.38z" class="cls-13" transform="translate(-43.804 -58.257)"/>
                <path id="Caminho_3224" d="M85.107 98.593c7.342 6.44 3.6 38.925 15.508 36.211 0 0-5.149 4.783-8.007 2.17-7.213-6.596-21.632-37.845-7.501-38.381z" class="cls-8" transform="translate(-47.484 -58.256)"/>
                <path id="Caminho_3225" d="M91.325 95.92c-.14.35-.268.677-.362.984a16.215 16.215 0 0 0-.591 2.469 17.375 17.375 0 0 0-.276 2.275 21.009 21.009 0 0 0 .082 3.931c-6.44 3.177-13.416-1.2-13.416-1.2a21.541 21.541 0 0 0 .739-3.1 47.449 47.449 0 0 0 .583-5.18.347.347 0 0 0 .012-.1l.008-.074z" class="cls-14" transform="translate(-54.325 -65.977)"/>
                <path id="Caminho_3226" d="M90.776 95.92c-.14.35-.268.677-.362.984a9.935 9.935 0 0 0-.591 2.469 17.374 17.374 0 0 0-.276 2.275A15.83 15.83 0 0 1 80.522 103a8.561 8.561 0 0 1-3.57-1.719 47.45 47.45 0 0 0 .583-5.18.347.347 0 0 0 .012-.1l.008-.074z" class="cls-15" transform="translate(-53.776 -65.977)"/>
                <path id="Caminho_3227" d="M85.364 97.662s-8.539 5.646-11.716 8.116c0 0 6 36.542 5.207 47.484 0 0 25.684-4.41 30.627-10.056 0 0-4.942-13.066-4.942-22.6s-.883-18.183-4.767-20.656c-.001.002-5.931 3.887-14.409-2.288z" class="cls-13" transform="translate(-63.32 -60.946)"/>
                <path id="Caminho_3228" d="M76.206 117.436s3.62 25.148 2.563 29.826a82.031 82.031 0 0 0 11.65-2.454s-9.084-13.525-8.854-22.146c.482-18.129-7.886-22.924-7.886-22.924s4.121 13.984 2.527 17.698z" class="cls-8" transform="translate(-63.233 -54.946)"/>
                <path id="Caminho_3229" d="M81.1 99.739c-8.3 5.152-12.109 28.317-8.8 42.608 1.042 4.487 6.284 4.313 10.787 1.279 3.181-2.143 1.342-4.7 1.649-5.623.766-2.322 3.134-20.4 3.134-20.4s-1.106-11.934-6.77-17.864z" class="cls-13" transform="translate(-70.654 -54.946)"/>
                <g id="Grupo_4661" transform="translate(35.274 79.5)">
                    <path id="Caminho_3230" d="M91.47 113.15a.656.656 0 0 1-.264.541c-.564.292-.891.159-1.478-.093-1.59-.688-2.5-1.594-4.289-.47-1.723 1.085-3.154 1.493-4.907.175a.707.707 0 0 1-.086-.984c.1-.657.506-.941 1.124-1.24a17.6 17.6 0 0 1 5.086-1.555c1.481-.189 4.966 1.44 4.814 3.626z" class="cls-14" transform="translate(-79.415 -106.228)"/>
                    <path id="Caminho_3231" d="M92.533 112.37a.463.463 0 0 1-.28.4 1.791 1.791 0 0 1-1.474-.171c-1.559-.646-2.438-1.412-4.262-.653-1.765.739-4.145 1.388-5.848.237-.323-.218-.276-1.96-.062-2.154.124-.505 1.493.253 2.123.058a21.307 21.307 0 0 1 5.129-.879c1.489-.038 4.911 1.463 4.674 3.162z" class="cls-14" transform="translate(-78.985 -107.082)"/>
                    <path id="Caminho_3232" d="M92.02 112.193a.484.484 0 0 1-.284.408 1.838 1.838 0 0 1-1.474-.171c-1.559-.646-2.438-1.419-4.262-.653-1.762.735-3.2.957-4.907-.191a.475.475 0 0 1-.051-.774c.128-.506.541-.7 1.17-.9a20.929 20.929 0 0 1 5.129-.875c1.491-.049 4.913 1.463 4.679 3.156z" class="cls-14" transform="translate(-77.741 -107.585)"/>
                    <path id="Caminho_3233" d="M93.463 111.6a4.912 4.912 0 0 0-2.131-1.913 6.208 6.208 0 0 0-4.34-.941 48.338 48.338 0 0 0-6.926 1.625l2.57 1.272c.264 1.715 3.368 1.019 4.962.354 1.824-.762 2.7.008 4.262.649a1.792 1.792 0 0 0 1.474.175.478.478 0 0 0 .28-.408 1.432 1.432 0 0 0-.151-.813z" class="cls-14" transform="translate(-80.063 -108.664)"/>
                </g>
                <path id="Caminho_3234" d="M76.661 97.662a16.139 16.139 0 0 0 12.09 3.2L88 104.91s-11.432-2.11-11.339-7.248z" class="cls-16" transform="translate(-54.616 -60.946)"/>
                <path id="Caminho_3235" d="M79.77 99.345l2.465 3.36a21.009 21.009 0 0 0 .743-3.539 2.845 2.845 0 0 0-1.571-.98s-.144.996-1.637 1.159z" class="cls-16" transform="translate(-45.636 -59.432)"/>
                <path id="Caminho_3236" d="M88.891 116.148c0 4.456-4.005 8.069-8.948 8.069s-8.952-3.612-8.952-8.069 4.009-8.069 8.952-8.069 8.948 3.609 8.948 8.069z" class="cls-8" transform="translate(-70.992 -30.855)"/>
                <path id="Caminho_3237" d="M88.891 110.154c0 4.456-4.005 8.069-8.948 8.069s-8.952-3.612-8.952-8.069c5.534 8.52 13.374 4.488 17.9 0z" class="cls-8" transform="translate(-70.992 -24.861)"/>
                <path id="Caminho_3238" d="M77.433 108.207s1.054 7.035 3.554 8.419 11.265 1.5 13.128-.723 1.509-20.61.809-22.045-12.816-6.758-16.935-.894-.556 15.243-.556 15.243z" class="cls-14" transform="translate(-56.512 -82.293)"/>
                <path id="Caminho_3239" d="M77.773 92.8c.206-.544 5.121-1.45 5.537-1.124a3.227 3.227 0 0 1 .257 2.427 24.337 24.337 0 0 1-5.436.156 3.218 3.218 0 0 1-.358-1.459z" class="cls-17" transform="translate(-51.47 -78.439)"/>
                <path id="Caminho_3240" d="M85.547 93.151c-.179-.556-4.791-1.835-5.2-1.54A3.224 3.224 0 0 0 80.014 94a22.282 22.282 0 0 0 5.133.568 3.269 3.269 0 0 0 .4-1.417z" class="cls-17" transform="translate(-45.23 -78.55)"/>
                <path id="Caminho_3241" d="M78.559 95.188c.175 1.023.8 1.692 1.431 1.513.665-.2 1.1-1.275.933-2.419-.167-1.163-.883-1.855-1.555-1.536a2.346 2.346 0 0 0-.809 2.442z" class="cls-17" transform="translate(-49.262 -75.372)"/>
                <path id="Caminho_3242" d="M80.349 94.79c.047 1.038.486 1.867 1.011 1.851.541-.016.96-.933.914-2.053s-.544-1.956-1.085-1.855c-.521.093-.889 1.019-.84 2.057z" class="cls-17" transform="translate(-43.975 -75.207)"/>
                <g id="Grupo_4662" transform="translate(31.634 28.628)">
                    <path id="Caminho_3243" d="M79.127 95.909s3.3.945 5.343-.327c0 0 0 2.831-1.781 3.321s-2.827-1.521-3.562-2.994z" class="cls-16" transform="translate(-79.127 -95.582)"/>
                </g>
                <g id="Grupo_4663" transform="translate(33.197 21.337)">
                    <path id="Caminho_3244" d="M81.349 93.707s1.676 3.671 1.295 4.639-3.115.424-3.115.424z" class="cls-14" transform="translate(-79.529 -93.707)"/>
                    <path id="Caminho_3245" d="M81.349 93.707q.181 1.038.439 2.018c.159.653.346 1.3.436 1.913.047.307.047.583-.023.611a1.292 1.292 0 0 1-.673.3 17.943 17.943 0 0 1-2 .222 4.845 4.845 0 0 0 2.077.478 1.775 1.775 0 0 0 1.209-.4 1.106 1.106 0 0 0 .319-.727 3.148 3.148 0 0 0-.016-.611 8.79 8.79 0 0 0-1.768-3.804z" class="cls-15" transform="translate(-79.529 -93.707)"/>
                </g>
                <path id="Caminho_3246" d="M101.667 88.22c-4.223 4.752-19.35-1.209-23.483 8.792a5.447 5.447 0 0 1-1.065-3.659c.043-.677-1.015-.626-1.058.051a6.393 6.393 0 0 0 1.221 4.196 11.052 11.052 0 0 0-2.959 1.12c-.591.346-.023 1.24.564.894a9.43 9.43 0 0 1 2.508-.953c-1.2 1.552-2.675 9.492 1.1 14.6 1.019 1.38 2.465 1.345 3.091.766 2.547-2.364 3.282-7.089 3.434-12.786 3.64-2.166 11.086-2.454 15.485-1.454 2.644.596 4.044-8.052 1.162-11.567z" class="cls-8" transform="translate(-62.093 -88.22)"/>
                <path id="Caminho_3247" d="M96.147 88.22c.739 2.263.638 6.23-2.236 7.544-4.476 2.042-18.238-2.248-16.974 2.893 1.68 6.86-1.5 15.947-.871 15.368 2.547-2.364 3.282-7.089 3.434-12.786 3.64-2.166 11.086-2.454 15.485-1.454 2.644.598 4.044-8.05 1.162-11.565z" class="cls-17" transform="translate(-56.573 -88.22)"/>
                <g id="Grupo_4664" transform="translate(16.402 20.955)">
                    <path id="Caminho_3248" d="M80.145 94.776c-.836-.859-4.379-1.882-4.822-.463-.712 2.267 2.03 6.638 5.292 4.861 1.194-.645.253-3.659-.47-4.398z" class="cls-14" transform="translate(-75.21 -93.608)"/>
                    <path id="Caminho_3249" d="M78.482 95.122s-2.6-1.7-2.843-.933c-.478 1.5 1.657 2.749 2.271 2.963 0 0-1.194-1.311-.883-1.867s1.455-.163 1.455-.163z" class="cls-15" transform="translate(-74.169 -92.511)"/>
                </g>
                <g id="Grupo_4667" transform="translate(29.233 67.429)">
                    <g id="Grupo_4665" transform="translate(0 18.536)">
                        <path id="Retângulo_972" d="M0 0H34.265V1.5H0z" class="cls-9" transform="translate(15.488 3.528)"/>
                        <path id="Caminho_3250" d="M94 114.511l-15.49-2.389v-1.5L94 113.011z" class="cls-10" transform="translate(-78.51 -109.483)"/>
                        <path id="Caminho_3251" d="M78.51 111.462l38.884-1.136 10.868 3.528H94z" class="cls-9" transform="translate(-78.51 -110.326)"/>
                    </g>
                    <g id="Grupo_4666" transform="translate(14.658)">
                        <path id="Caminho_3252" d="M116.41 127.624H82.279l4.491-21.014a1.289 1.289 0 0 1 1.237-1.05h30.74a2 2 0 0 1 1.851 2.473z" class="cls-9" transform="translate(-82.279 -105.56)"/>
                        <path id="Caminho_3253" d="M116.623 127.624H82.492l4.5-21.014a1.283 1.283 0 0 1 1.237-1.05h31.381a1.451 1.451 0 0 1 1.349 1.8z" class="cls-10" transform="translate(-81.664 -105.56)"/>
                        <path id="Caminho_3254" d="M110.886 127.624H84.478l17.969-22.064h11.421a1.451 1.451 0 0 1 1.349 1.8z" class="cls-9" transform="translate(-75.927 -105.56)"/>
                    </g>
                </g>
                <path id="Caminho_3255" d="M71.595 114.86c-.109 1.058.723 5.9 4.853 6.066 10.231.424 30.265-5.5 30.265-5.5l-.093-6.094s-27.084-.984-30.39-.128-4.371 3.042-4.635 5.656z" class="cls-14" transform="translate(-69.277 -28.61)"/>
                <path id="Caminho_3256" d="M71.741 112.833a30.513 30.513 0 0 0 10.46.677c6.156-.583 24.063-2.963 24.063-2.963s-23.806 7.186-31.514 5.281a4.214 4.214 0 0 1-3.009-2.995z" class="cls-15" transform="translate(-68.828 -23.729)"/>
            </g>
        </g>
        <g id="Grupo_4673" transform="translate(51.42 114.304)">
            <path id="Caminho_3257" d="M56.213 253.15h3.36V133.244a50.88 50.88 0 0 1 50.82-50.824h9.617v-3.36h-9.617a54.241 54.241 0 0 0-54.18 54.184z" class="cls-18" transform="translate(-37.575 -79.06)"/>
            <g id="Grupo_4670" transform="translate(0 167.769)">
                <path id="Caminho_3258" d="M79.072 122.866H59.516a7.736 7.736 0 0 0-7.738 7.579l-.008.319h35.04a7.742 7.742 0 0 0-7.738-7.898z" class="cls-18" transform="translate(-50.409 -120.29)"/>
                <path id="Caminho_3259" d="M87.9 124.238H52.7a1.285 1.285 0 0 0-1.283 1.283A1.284 1.284 0 0 0 52.7 126.8h35.2a1.28 1.28 0 0 0 1.279-1.279 1.281 1.281 0 0 0-1.279-1.283z" class="cls-19" transform="translate(-51.42 -116.327)"/>
                <path id="Caminho_3260" d="M56.048 123.563h5.138l4.6-1.359v2.575h-9.738z" class="cls-20" transform="translate(-38.051 -122.204)"/>
            </g>
            <g id="Grupo_4672" transform="translate(62.709 .014)">
                <path id="Caminho_3261" d="M104.561 94.62c.288 1.715-7.707 4.484-17.861 6.187-.731.121-1.458.237-2.174.338-9.154 1.345-16.457 1.221-16.721-.373a18.633 18.633 0 0 1 36.755-6.152z" class="cls-19" transform="translate(-67.546 -79.063)"/>
                <path id="Caminho_3262" d="M100.217 94.8c.264 1.6-6.6 4.095-15.691 5.8-9.154 1.345-16.457 1.221-16.721-.373a18.624 18.624 0 0 1 13.148-20.953A18.64 18.64 0 0 1 100.217 94.8z" class="cls-18" transform="translate(-67.546 -78.521)"/>
                <path id="Caminho_3263" d="M77.725 79.626s-10.468 4.939-9.243 19.008l5.495-.922s-4.651-9.387 3.748-18.086z" class="cls-19" transform="translate(-65.131 -77.439)"/>
                <path id="Caminho_3264" d="M104.374 84.025c.288 1.715-7.707 4.484-17.861 6.187s-18.607 1.688-18.894-.035 7.707-4.48 17.853-6.183 18.614-1.684 18.902.031z" class="cls-19" transform="translate(-67.359 -68.469)"/>
                <g id="Grupo_4671" transform="translate(13.162 14.884)">
                    <path id="Caminho_3265" d="M81.661 85.745a5.392 5.392 0 1 1-10.208-1.384c1.4-.3 2.858-.572 4.367-.828s2.983-.467 4.4-.642a5.368 5.368 0 0 1 1.441 2.854z" class="cls-15" transform="translate(-70.871 -82.891)"/>
                    <path id="Caminho_3266" d="M79.692 85.3a4.41 4.41 0 1 1-8.349-1.135c1.139-.245 2.333-.467 3.57-.677s2.442-.385 3.6-.525a4.457 4.457 0 0 1 1.179 2.337z" class="cls-14" transform="translate(-70.931 -82.683)"/>
                    <path id="Caminho_3267" d="M76.338 84.5a2.7 2.7 0 1 1-5.106-.7c.7-.144 1.427-.284 2.182-.408s1.493-.237 2.2-.323a2.733 2.733 0 0 1 .724 1.431z" class="cls-6" transform="translate(-70.785 -82.362)"/>
                </g>
            </g>
        </g>
        <g id="Grupo_4679" transform="translate(364.164 204.602)">
            <g id="Grupo_4677">
                <path id="Caminho_3268" d="M142.985 149c-2.5-11.654-4.071-23.472-3.375-35.449a.333.333 0 0 0-.665-.027c-.7 12.039.875 23.915 3.395 35.624.214-.048.431-.095.645-.148z" class="cls-21" transform="translate(-111.818 -70.689)"/>
                <path id="Caminho_3269" d="M144.876 116.431c-2.038 2.364-3.823 4.721-4.285 7.894a69.7 69.7 0 0 0-.3 11.748c.031 1.272.086 2.543.152 3.811l.653-.121q-.058-1.2-.105-2.4c-.117-3.457-.113-6.93.047-10.387a14.22 14.22 0 0 1 1.147-5.716 21.1 21.1 0 0 1 3.154-4.348c.276-.321-.183-.812-.463-.481z" class="cls-21" transform="translate(-107.74 -61.718)"/>
                <g id="Grupo_4674" transform="translate(18.63)">
                    <path id="Caminho_3270" d="M153.287 126.422a7.3 7.3 0 0 0 4.145-1.369 35.464 35.464 0 0 1-.618 7.618c-1.625 2.625-6.144 7.451-5.841 7.423a14.475 14.475 0 0 0 3.624-.848 26.706 26.706 0 0 1-2.761 4.519c-2.189 2.924-5.316 5.261-6.5 8.831a.231.231 0 0 1-.136.156.256.256 0 0 1-.428.183c-5.9-5.6-6.949-14.1-7.812-21.769-.043-.362-.085-.723-.117-1.085a23.648 23.648 0 0 0 5.432 4.243c.288.156-3.69-6.214-5.639-9.142a17.171 17.171 0 0 1 1.015-5.448 45.673 45.673 0 0 1 6.043-10.34c.093-.128.2-.257.292-.385a17.683 17.683 0 0 0 2.535 4.592 53.428 53.428 0 0 0-.789-6.887c.576-.719 1.151-1.431 1.754-2.127.786-.929 1.754-2.5 3.165-2.287 1.369.191 4.491 5.8 4.888 7.408.171.684.323 1.384.463 2.084.066.3.121.611.175.914a83.855 83.855 0 0 1 1.054 8.536c-.1.156-.194.307-.307.455-1.144 1.556-3.924 4.721-3.637 4.725z" class="cls-22" transform="translate(-136.636 -102.281)"/>
                    <path id="Caminho_3271" d="M150.6 113.459c-2 1.781-4.087 3.55-6.8 4.017q.927-6.5 2.189-12.945c.086-.424-.576-.521-.657-.1q-1.692 8.534-2.757 17.168a28.451 28.451 0 0 1-3.854-7.734c-.128-.412-.751-.159-.618.249a29.135 29.135 0 0 0 4.134 8.17.3.3 0 0 0 .241.132c-.156 1.256-.3 2.52-.428 3.78a18.007 18.007 0 0 1-2.858-5c-.148-.4-.766-.152-.618.249a18.468 18.468 0 0 0 3.247 5.545.353.353 0 0 0 .136.1q-1.032 10.039-1.244 20.159c-.012.432.653.346.661-.07q.07-3.453.241-6.895a.306.306 0 0 0 .3-.035 11.073 11.073 0 0 0 3.045-3.119c.233-.362-.284-.774-.521-.416a10.52 10.52 0 0 1-2.788 2.9q.554-10.756 2.057-21.434h.027c2.909-.439 5.133-2.279 7.272-4.176.309-.288-.084-.829-.407-.545z" class="cls-21" transform="translate(-132.452 -96.854)"/>
                </g>
                <path id="Caminho_3272" d="M144.077 143.738c-1.26-9.582-3.356-18.969-7.435-27.745-.148-.315.416-.552.56-.237 4.1 8.816 6.206 18.257 7.47 27.885-.202.031-.401.066-.595.097z" class="cls-21" transform="translate(-118.058 -63.787)"/>
                <g id="Grupo_4675" transform="translate(0 21.391)">
                    <path id="Caminho_3273" d="M138.623 126.988a7.261 7.261 0 0 1-3.916.338 25.157 25.157 0 0 0 2.734 5.518c2.147 1.439 7.388 3.578 7.12 3.659a15.088 15.088 0 0 1-3.325.556 21.5 21.5 0 0 0 3.659 2.489c2.714 1.47 6.047 2.2 8.092 4.5a.191.191 0 0 0 .163.07.241.241 0 0 0 .42 0c3.383-6.144 1.808-12.883.315-18.926-.07-.284-.14-.572-.214-.856a21.507 21.507 0 0 1-3.391 4.974c-.2.21 1.334-5.876 2.139-8.722a12.473 12.473 0 0 0-2.446-3.76 36.185 36.185 0 0 0-8.143-5.779c-.113-.07-.241-.124-.358-.2a13.785 13.785 0 0 1-.824 4.289 39.209 39.209 0 0 1-1.33-5.44c-.7-.346-1.4-.692-2.1-1.019-.937-.436-2.22-1.3-3.36-.677-1.108.595-2.131 5.837-2 7.171.051.576.124 1.147.21 1.723.027.249.074.5.113.743a61.218 61.218 0 0 0 1.59 6.758 4.375 4.375 0 0 0 .389.245c1.426.787 4.704 2.258 4.463 2.346z" class="cls-22" transform="translate(-131.845 -107.782)"/>
                    <path id="Caminho_3274" d="M132.975 117.813c2.22.677 4.511 1.322 6.949.778-1.785-3.049-3.651-6.062-5.623-9.006-.194-.288.334-.583.529-.3q3.92 5.862 7.334 12a22.05 22.05 0 0 0 1.027-7.081c-.008-.35.591-.366.6-.019a22.522 22.522 0 0 1-1.139 7.5.291.291 0 0 1-.167.183q.747 1.342 1.462 2.695a14.066 14.066 0 0 0 .976-4.7c.008-.35.611-.366.6-.016a14.633 14.633 0 0 1-1.151 5.238.32.32 0 0 1-.089.113q3.8 7.21 6.918 14.738c.132.319-.455.478-.583.163q-1.062-2.572-2.2-5.1a.315.315 0 0 1-.261.066 9.474 9.474 0 0 1-3.5-1.338c-.3-.191.019-.677.323-.482a9.214 9.214 0 0 0 3.216 1.256q-3.6-7.9-7.979-15.43l-.023.012c-2.6.626-5.024-.019-7.392-.747a.28.28 0 0 1 .173-.523z" class="cls-21" transform="translate(-129.658 -103.771)"/>
                    <path id="Caminho_3275" d="M132.015 110.868a16.072 16.072 0 0 0 4.884 1.816c.373.066.552-.463.187-.533a15.242 15.242 0 0 1-5.184-2.026c.027.249.074.502.113.743z" class="cls-21" transform="translate(-131.68 -101.014)"/>
                </g>
                <g id="Grupo_4676" transform="translate(30.714 33.126)">
                    <path id="Caminho_3276" d="M170.675 115.2c-.035 2.4-5.584 3.558-7.346 4.211-3.9 1.443-7.707 2.9-10.593 6.035a128.548 128.548 0 0 0-9.259 12.047.7.7 0 0 1-.692.3 11.688 11.688 0 0 1-.809-1.754c-1.011-2.5-2.559-7.054-2.174-9.652a15.677 15.677 0 0 1 1.769-5.18 4.638 4.638 0 0 0 1.108 2.193 45.718 45.718 0 0 0 .642-4.826c.257-.319.517-.622.789-.918a17.571 17.571 0 0 1 2.053-1.89c.156-.124.311-.249.471-.362a21 21 0 0 1 1.867-1.24c.171-.1.346-.2.525-.3a20.759 20.759 0 0 1 1.863-.925 12.909 12.909 0 0 0 1.03 3.422 22.176 22.176 0 0 0 .408-4c.6-.226 1.217-.412 1.843-.595a9.914 9.914 0 0 0 .766 2.209 11.357 11.357 0 0 0 1.205-2.683 24.14 24.14 0 0 1 5.946-.463c.171 0 .338.012.5.031.533.035 1.062.089 1.579.175 1.909.292 6.416 1.509 6.5 4.091a.43.43 0 0 1 .009.074z" class="cls-22" transform="translate(-139.743 -110.799)"/>
                    <path id="Caminho_3277" d="M147.072 118.234c-5.534 5.456-6.587 16.282-6.545 16.289a.7.7 0 0 0 .692-.3 128.549 128.549 0 0 1 9.259-12.047c2.885-3.138 6.692-4.592 10.593-6.035 1.761-.653 7.311-1.816 7.346-4.211-7.393.864-15.917.95-21.345 6.304z" class="cls-21" transform="translate(-137.485 -107.531)"/>
                    <path id="Caminho_3278" d="M142.25 117.048a15.867 15.867 0 0 1-.148-5.16c.171-.1.346-.2.525-.3a15.3 15.3 0 0 0 .1 5.355c.056.303-.414.412-.477.105z" class="cls-21" transform="translate(-133.343 -108.522)"/>
                    <path id="Caminho_3279" d="M142.076 116.868a20.78 20.78 0 0 1-.681-4.522c.156-.124.311-.249.471-.362a20.424 20.424 0 0 0 .688 4.767c.081.308-.397.416-.478.117z" class="cls-21" transform="translate(-134.973 -107.378)"/>
                </g>
            </g>
            <g id="Grupo_4678" transform="translate(11.569 67.791)">
                <path id="Caminho_3280" d="M169.433 126.472a17.261 17.261 0 0 1-7.155 14.015h-20.307A17.313 17.313 0 0 1 135.2 130.1a17.662 17.662 0 0 1-.377-3.628 16.991 16.991 0 0 1 .416-3.772 16.6 16.6 0 0 1 .953-2.986h31.868a16.928 16.928 0 0 1 .957 2.986 17.222 17.222 0 0 1 .416 3.772z" class="cls-7" transform="translate(-134.82 -119.714)"/>
                <path id="Caminho_3281" fill="#ffa44a" d="M164.121 126.472a17.261 17.261 0 0 1-7.155 14.015h-20.307c26.528 1.318 26.089-20.773 26.089-20.773a16.928 16.928 0 0 1 .957 2.986 17.222 17.222 0 0 1 .416 3.772z" transform="translate(-129.508 -119.714)" style="isolation:isolate;mix-blend-mode:multiply" opacity="0.5"/>
                <path id="Caminho_3282" fill="#fff" d="M142.508 119.714h-6.319a16.6 16.6 0 0 0-.953 2.986 16.991 16.991 0 0 0-.416 3.772 17.662 17.662 0 0 0 .377 3.628 17.313 17.313 0 0 0 6.774 10.387h2.811c-3.398-2.465-4.982-13.735-2.274-20.773z" transform="translate(-134.82 -119.714)" style="mix-blend-mode:screen;isolation:isolate" opacity="0.3"/>
            </g>
        </g>
        <g id="Grupo_4694" transform="translate(233.7 124.205)">
            <path id="Caminho_3283" d="M163.124 81.624l-53.018.315-.016 6.883 26.851.051 19.136.1a11.683 11.683 0 0 1 11.658 11.7l-.226 122.714a11.677 11.677 0 0 1-11.7 11.654l-45.991.1-.018 14.459 53.014.49a11.674 11.674 0 0 0 11.7-11.654l.268-145.112a11.677 11.677 0 0 0-11.658-11.7z" class="cls-25" transform="translate(-65.064 -81.554)"/>
            <path id="Caminho_3284" d="M189.271 81.633c-.264-.023-.537-.027-.809-.027h-81.521a7.567 7.567 0 0 0-7.571 7.567V242.51a7.564 7.564 0 0 0 7.563 7.56h81.529c.264 0 .529-.008.8-.027a11.676 11.676 0 0 0 10.88-11.654V93.287a11.68 11.68 0 0 0-10.871-11.654z" class="cls-16" transform="translate(-95.19 -81.606)"/>
            <path id="Caminho_3285" d="M131.842 129.164l-19.435-.035a3.53 3.53 0 0 1-3.523-3.535 3.522 3.522 0 0 1 3.535-3.519l19.435.031a3.533 3.533 0 0 1 3.523 3.539 3.527 3.527 0 0 1-3.535 3.519z" class="cls-25" transform="translate(-67.707 35.294)"/>
            <g id="Grupo_4691" transform="translate(11.211 7.365)">
                <path id="Caminho_3286" d="M101.178 222V91.063a7.559 7.559 0 0 1 7.56-7.563h23.254l.848 2.7a3.761 3.761 0 0 0 3.659 2.885h16.064a3.761 3.761 0 0 0 3.659-2.885l.852-2.7h23.254a7.562 7.562 0 0 1 7.563 7.563v130.93a7.566 7.566 0 0 1-7.567 7.567h-71.586a7.56 7.56 0 0 1-7.56-7.56z" class="cls-2" transform="translate(-101.178 -83.5)"/>
                <g id="Grupo_4690" clip-path="url(#clip-path-2)">
                    <g id="Grupo_4689" transform="translate(-11.211 26.371)">
                        <g id="Grupo_4680" transform="translate(6.539 39.777)">
                            <path id="Retângulo_973" d="M0 0H20.219V24.459H0z" class="cls-27" transform="translate(.438 .466)"/>
                            <path id="Caminho_3287" d="M115.109 100.834v5.491l-.876 1.55L105 124.034h-3.11l12.343-21.65z" class="cls-28" transform="translate(-94.45 -99.575)"/>
                            <path id="Caminho_3288" d="M102.432 124.3h-1.554l13.422-23.557h1.554z" class="cls-28" transform="translate(-97.371 -99.839)"/>
                            <path id="Retângulo_974" d="M0 0H0.875V25.39H0z" class="cls-16" transform="translate(0 .029)"/>
                            <path id="Retângulo_975" d="M0 0H1.372V24.996H0z" class="cls-16" transform="translate(9.643 .226)"/>
                            <path id="Caminho_3289" d="M120.636 100.51v.875l-20.659.029v-.875z" class="cls-16" transform="translate(-99.977 -100.51)"/>
                            <path id="Caminho_3290" d="M120.636 106.8v.875l-20.659.029v-.875z" class="cls-16" transform="translate(-99.977 -82.341)"/>
                            <path id="Retângulo_976" d="M0 0H0.875V24.996H0z" class="cls-29" transform="translate(19.782 .226)"/>
                            <path id="Retângulo_977" d="M0 0H0.876V25.388H0z" class="cls-16" transform="translate(19.783)"/>
                            <path id="Retângulo_978" d="M0 0H1.434V20.657H0z" class="cls-16" transform="rotate(-90 6.72 6.72)"/>
                        </g>
                        <g id="Grupo_4681" transform="translate(77.947 39.777)">
                            <path id="Retângulo_979" d="M0 0H20.22V24.459H0z" class="cls-27" transform="translate(.438 .466)"/>
                            <path id="Caminho_3291" d="M133.473 100.834v5.491l-.877 1.55-9.236 16.16h-3.106l12.342-21.65z" class="cls-28" transform="translate(-112.812 -99.575)"/>
                            <path id="Caminho_3292" d="M120.795 124.3h-1.552l13.42-23.555h1.554z" class="cls-28" transform="translate(-115.732 -99.839)"/>
                            <path id="Retângulo_980" d="M0 0H0.877V25.39H0z" class="cls-16" transform="translate(0 .029)"/>
                            <path id="Retângulo_981" d="M0 0H1.372V24.996H0z" class="cls-16" transform="translate(9.644 .226)"/>
                            <path id="Caminho_3293" d="M139 100.51v.875l-20.66.029v-.875z" class="cls-16" transform="translate(-118.34 -100.51)"/>
                            <path id="Caminho_3294" d="M139 106.8v.875l-20.66.029v-.875z" class="cls-16" transform="translate(-118.34 -82.341)"/>
                            <path id="Retângulo_982" d="M0 0H0.875V24.996H0z" class="cls-29" transform="translate(19.783 .226)"/>
                            <path id="Retângulo_983" d="M0 0H0.877V25.388H0z" class="cls-16" transform="translate(19.784)"/>
                            <path id="Retângulo_984" d="M0 0H1.434V20.658H0z" class="cls-16" transform="rotate(-90 6.72 6.72)"/>
                        </g>
                        <g id="Grupo_4682" transform="translate(11.496)">
                            <path id="Retângulo_985" fill="#c9252f" d="M0 0H87.112V17.052H0z" transform="rotate(180 43.556 8.526)"/>
                        </g>
                        <g id="Grupo_4683" transform="translate(11.497 91.272)">
                            <path id="Retângulo_986" d="M0 0H85.514V2.048H0z" class="cls-19" transform="rotate(180 44.148 1.024)"/>
                            <path id="Retângulo_987" d="M0 0H85.513V2.048H0z" class="cls-18" transform="rotate(180 42.757 1.024)"/>
                        </g>
                        <g id="Grupo_4684" transform="translate(39.4 4.178)">
                            <path id="Caminho_3295" d="M108.427 96.567l1.478-.144a1.822 1.822 0 0 0 .541 1.093 1.658 1.658 0 0 0 1.1.346 1.682 1.682 0 0 0 1.108-.311.926.926 0 0 0 .369-.727.677.677 0 0 0-.156-.451 1.232 1.232 0 0 0-.544-.327c-.179-.062-.583-.171-1.217-.331a4.118 4.118 0 0 1-1.715-.743 1.975 1.975 0 0 1-.366-2.59 2.038 2.038 0 0 1 .937-.762 3.752 3.752 0 0 1 1.482-.264 3.173 3.173 0 0 1 2.135.626 2.192 2.192 0 0 1 .751 1.657l-1.52.066a1.308 1.308 0 0 0-.416-.836 1.552 1.552 0 0 0-.964-.253 1.761 1.761 0 0 0-1.038.272.552.552 0 0 0-.241.467.583.583 0 0 0 .229.459 4.034 4.034 0 0 0 1.4.5 7.358 7.358 0 0 1 1.637.541 2.111 2.111 0 0 1 .832.766 2.378 2.378 0 0 1-.058 2.411 2.148 2.148 0 0 1-1.019.836 4.236 4.236 0 0 1-1.633.276 3.262 3.262 0 0 1-2.193-.657 2.863 2.863 0 0 1-.919-1.92z" class="cls-16" transform="translate(-108.427 -91.356)"/>
                            <path id="Caminho_3296" d="M110.33 98.915V91.39h1.52v2.959h2.979V91.39h1.517v7.524h-1.517v-3.29h-2.979v3.29z" class="cls-16" transform="translate(-102.93 -91.258)"/>
                            <path id="Caminho_3297" d="M112.2 95.3a4.771 4.771 0 0 1 .342-1.929 3.585 3.585 0 0 1 .7-1.034 2.864 2.864 0 0 1 .972-.673 4.048 4.048 0 0 1 1.622-.3 3.529 3.529 0 0 1 2.66 1.034 4.606 4.606 0 0 1 .008 5.72 3.954 3.954 0 0 1-5.316.008 3.893 3.893 0 0 1-.988-2.826zm1.567-.051a2.813 2.813 0 0 0 .587 1.937 2.029 2.029 0 0 0 2.99.008 2.883 2.883 0 0 0 .583-1.964 2.846 2.846 0 0 0-.568-1.933 1.917 1.917 0 0 0-1.5-.638 1.946 1.946 0 0 0-1.517.646 2.86 2.86 0 0 0-.573 1.94z" class="cls-16" transform="translate(-97.522 -91.356)"/>
                            <path id="Caminho_3298" d="M114.384 98.915V91.39h2.438a8.714 8.714 0 0 1 1.808.113 1.971 1.971 0 0 1 1.081.739 2.311 2.311 0 0 1 .436 1.462 2.438 2.438 0 0 1-.249 1.163 2.044 2.044 0 0 1-.642.743 2.151 2.151 0 0 1-.786.358 8.528 8.528 0 0 1-1.579.109h-.991v2.839zm1.52-6.253V94.8h.832a3.948 3.948 0 0 0 1.2-.117.983.983 0 0 0 .474-.369 1 1 0 0 0 .175-.587.98.98 0 0 0-.241-.677 1.065 1.065 0 0 0-.61-.331 7.093 7.093 0 0 0-1.093-.054z" class="cls-16" transform="translate(-91.22 -91.258)"/>
                        </g>
                        <g id="Grupo_4686" transform="translate(29.766 39.777)">
                            <path id="Retângulo_988" d="M0 0H2.086V45.871H0z" class="cls-16" transform="rotate(180 19.835 23.566)"/>
                            <path id="Retângulo_989" d="M0 0H33.302V48.974H0z" class="cls-31" transform="rotate(180 18.792 25.67)"/>
                            <path id="Retângulo_990" d="M0 0H1.972V50.08H0z" class="cls-16" transform="rotate(180 11.058 25.67)"/>
                            <path id="Retângulo_991" d="M0 0H39.803V2.365H0z" class="cls-16" transform="rotate(180 20.418 1.183)"/>
                            <g id="Grupo_4685" transform="translate(0 47.131)">
                                <path id="Retângulo_992" d="M0 0H8.898V4.486H0z" class="cls-6" transform="rotate(180 19.835 2.243)"/>
                                <path id="Retângulo_993" d="M0 0H35.463V2.242H0z" class="cls-16" transform="rotate(180 18.773 1.121)"/>
                                <path id="Retângulo_994" d="M0 0H35.463V2.244H0z" class="cls-16" transform="rotate(180 17.732 2.243)"/>
                                <path id="Retângulo_995" d="M0 0H35.463V0.491H0z" class="cls-6" transform="rotate(180 18.773 1.121)"/>
                            </g>
                            <path id="Retângulo_996" d="M0 0H2.086V45.871H0z" class="cls-16" transform="rotate(180 2.141 23.566)"/>
                            <path id="Caminho_3299" d="M111.926 108.017a1.631 1.631 0 1 1 1.629 1.629 1.633 1.633 0 0 1-1.629-1.629z" class="cls-16" transform="translate(-88.686 -83.556)"/>
                            <path id="Caminho_3300" d="M109.974 108.017a1.631 1.631 0 1 1 1.629 1.629 1.636 1.636 0 0 1-1.629-1.629z" class="cls-16" transform="translate(-94.325 -83.556)"/>
                        </g>
                        <g id="Grupo_4688" transform="translate(0 16.032)">
                            <g id="Grupo_4687">
                                <path id="Caminho_3301" d="M118.609 106.067H130.1l9.582-9.869a1.06 1.06 0 0 0-.77-1.793h-9.01z" class="cls-16" transform="translate(-39.615 -94.403)"/>
                                <path id="Caminho_3302" d="M115.654 106.07h11.494l11.295-11.67h-11.5z" class="cls-31" transform="translate(-48.152 -94.404)"/>
                                <path id="Caminho_3303" d="M112.707 106.07H124.2l11.3-11.67H124z" class="cls-16" transform="translate(-56.665 -94.404)"/>
                                <path id="Caminho_3304" d="M109.75 106.07h11.5l11.29-11.67h-11.494z" class="cls-31" transform="translate(-65.204 -94.404)"/>
                                <path id="Caminho_3305" d="M107.033 106.07h11.494L129.82 94.4h-11.494z" class="cls-16" transform="translate(-73.055 -94.404)"/>
                                <path id="Caminho_3306" d="M104.077 106.07h11.5l11.288-11.67h-11.494z" class="cls-31" transform="translate(-81.594 -94.404)"/>
                                <path id="Caminho_3307" d="M101.251 106.07h11.494L124.04 94.4h-11.495z" class="cls-16" transform="translate(-89.755 -94.404)"/>
                                <path id="Caminho_3308" d="M98.3 106.067h11.49l11.3-11.662h-10.4a2.571 2.571 0 0 0-1.855.789z" class="cls-31" transform="translate(-98.295 -94.403)"/>
                            </g>
                            <path id="Caminho_3309" d="M124.356 105.068a5.746 5.746 0 0 0 5.747-5.747V97.4h-11.494v1.917a5.749 5.749 0 0 0 5.747 5.751z" class="cls-32" transform="translate(-39.615 -85.74)"/>
                            <path id="Caminho_3310" d="M121.4 105.068a5.746 5.746 0 0 0 5.747-5.747V97.4h-11.493v1.917a5.745 5.745 0 0 0 5.746 5.751z" class="cls-20" transform="translate(-48.151 -85.74)"/>
                            <path id="Caminho_3311" d="M118.454 105.068a5.745 5.745 0 0 0 5.744-5.747V97.4h-11.491v1.917a5.746 5.746 0 0 0 5.747 5.751z" class="cls-32" transform="translate(-56.664 -85.74)"/>
                            <path id="Caminho_3312" d="M115.288 105.068a5.316 5.316 0 0 0 5.32-5.316V97.4h-10.636v2.349a5.318 5.318 0 0 0 5.316 5.319z" class="cls-20" transform="translate(-64.565 -85.74)"/>
                            <path id="Caminho_3313" d="M112.78 105.068a5.749 5.749 0 0 0 5.747-5.747V97.4h-11.494v1.917a5.746 5.746 0 0 0 5.747 5.751z" class="cls-32" transform="translate(-73.054 -85.74)"/>
                            <path id="Caminho_3314" d="M109.821 105.068a5.75 5.75 0 0 0 5.751-5.747V97.4h-11.495v1.917a5.745 5.745 0 0 0 5.744 5.751z" class="cls-20" transform="translate(-81.593 -85.74)"/>
                            <path id="Caminho_3315" d="M107 105.068a5.749 5.749 0 0 0 5.747-5.747V97.4h-11.496v1.917a5.749 5.749 0 0 0 5.749 5.751z" class="cls-32" transform="translate(-89.756 -85.74)"/>
                            <path id="Caminho_3316" d="M104.043 105.068a5.746 5.746 0 0 0 5.747-5.747V97.4H98.3v1.917a5.749 5.749 0 0 0 5.743 5.751z" class="cls-20" transform="translate(-98.295 -85.74)"/>
                        </g>
                    </g>
                </g>
            </g>
            <g id="Grupo_4693" transform="translate(0 49.769)">
                <g id="Grupo_4692">
                    <path id="Caminho_3318" d="M118.609 106.067H130.1l9.582-9.869a1.06 1.06 0 0 0-.77-1.793h-9.01z" class="cls-16" transform="translate(-39.615 -94.403)"/>
                    <path id="Caminho_3319" d="M115.654 106.07h11.494l11.295-11.67h-11.5z" class="cls-31" transform="translate(-48.152 -94.404)"/>
                    <path id="Caminho_3320" d="M112.707 106.07H124.2l11.3-11.67H124z" class="cls-16" transform="translate(-56.665 -94.404)"/>
                    <path id="Caminho_3321" d="M109.75 106.07h11.5l11.29-11.67h-11.494z" class="cls-31" transform="translate(-65.204 -94.404)"/>
                    <path id="Caminho_3322" d="M107.033 106.07h11.494L129.82 94.4h-11.494z" class="cls-16" transform="translate(-73.055 -94.404)"/>
                    <path id="Caminho_3323" d="M104.077 106.07h11.5l11.288-11.67h-11.494z" class="cls-31" transform="translate(-81.594 -94.404)"/>
                    <path id="Caminho_3324" d="M101.251 106.07h11.494L124.04 94.4h-11.495z" class="cls-16" transform="translate(-89.755 -94.404)"/>
                    <path id="Caminho_3325" d="M98.3 106.067h11.49l11.3-11.662h-10.4a2.571 2.571 0 0 0-1.855.789z" class="cls-31" transform="translate(-98.295 -94.403)"/>
                </g>
                <path id="Caminho_3326" d="M124.356 105.068a5.746 5.746 0 0 0 5.747-5.747V97.4h-11.494v1.917a5.749 5.749 0 0 0 5.747 5.751z" class="cls-32" transform="translate(-39.615 -85.74)"/>
                <path id="Caminho_3327" d="M121.4 105.068a5.746 5.746 0 0 0 5.747-5.747V97.4h-11.493v1.917a5.745 5.745 0 0 0 5.746 5.751z" class="cls-20" transform="translate(-48.151 -85.74)"/>
                <path id="Caminho_3328" d="M118.454 105.068a5.745 5.745 0 0 0 5.744-5.747V97.4h-11.491v1.917a5.746 5.746 0 0 0 5.747 5.751z" class="cls-32" transform="translate(-56.664 -85.74)"/>
                <path id="Caminho_3329" d="M115.288 105.068a5.316 5.316 0 0 0 5.32-5.316V97.4h-10.636v2.349a5.318 5.318 0 0 0 5.316 5.319z" class="cls-20" transform="translate(-64.565 -85.74)"/>
                <path id="Caminho_3330" d="M112.78 105.068a5.749 5.749 0 0 0 5.747-5.747V97.4h-11.494v1.917a5.746 5.746 0 0 0 5.747 5.751z" class="cls-32" transform="translate(-73.054 -85.74)"/>
                <path id="Caminho_3331" d="M109.821 105.068a5.75 5.75 0 0 0 5.751-5.747V97.4h-11.495v1.917a5.745 5.745 0 0 0 5.744 5.751z" class="cls-20" transform="translate(-81.593 -85.74)"/>
                <path id="Caminho_3332" d="M107 105.068a5.749 5.749 0 0 0 5.747-5.747V97.4h-11.496v1.917a5.749 5.749 0 0 0 5.749 5.751z" class="cls-32" transform="translate(-89.756 -85.74)"/>
                <path id="Caminho_3333" d="M104.043 105.068a5.746 5.746 0 0 0 5.747-5.747V97.4H98.3v1.917a5.749 5.749 0 0 0 5.743 5.751z" class="cls-20" transform="translate(-98.295 -85.74)"/>
            </g>
        </g>
    </g>
</svg>
